<svg width="521" height="351" viewBox="0 0 521 351" fill="none" xmlns="http://www.w3.org/2000/svg">
<g clip-path="url(#clip0_301_1501)" filter="url(#filter0_d_301_1501)">
<path d="M4 0.860352H517V342.86H4V0.860352Z" fill="#009B3A"/>
<path d="M260.5 20.1602L465.4 171.56L260.5 322.86L54.6 171.56L260.5 20.1602Z" fill="#FEDF00"/>
<path d="M260.5 252.26C304.904 252.26 340.9 216.264 340.9 171.86C340.9 127.457 304.904 91.4604 260.5 91.4604C216.096 91.4604 180.1 127.457 180.1 171.86C180.1 216.264 216.096 252.26 260.5 252.26Z" fill="white"/>
<path d="M219.9 166.561C206 166.561 192.5 168.661 179.8 172.561C180.4 216.461 216.1 251.861 260.1 251.861C287.3 251.861 311.4 238.261 325.9 217.561C301 186.561 262.7 166.561 219.9 166.561ZM338.9 186.861C339.8 181.861 340.4 176.761 340.4 171.461C340.4 127.061 304.4 91.0605 260 91.0605C226.9 91.0605 198.5 111.161 186.1 139.661C197 137.461 208.2 136.261 219.7 136.261C266.5 136.361 308.7 155.761 338.9 186.861Z" fill="#002776"/>
</g>
<defs>
<filter id="filter0_d_301_1501" x="0" y="0.860352" width="521" height="350" filterUnits="userSpaceOnUse" color-interpolation-filters="sRGB">
<feFlood flood-opacity="0" result="BackgroundImageFix"/>
<feColorMatrix in="SourceAlpha" type="matrix" values="0 0 0 0 0 0 0 0 0 0 0 0 0 0 0 0 0 0 127 0" result="hardAlpha"/>
<feOffset dy="4"/>
<feGaussianBlur stdDeviation="2"/>
<feComposite in2="hardAlpha" operator="out"/>
<feColorMatrix type="matrix" values="0 0 0 0 0 0 0 0 0 0 0 0 0 0 0 0 0 0 0.25 0"/>
<feBlend mode="normal" in2="BackgroundImageFix" result="effect1_dropShadow_301_1501"/>
<feBlend mode="normal" in="SourceGraphic" in2="effect1_dropShadow_301_1501" result="shape"/>
</filter>
<clipPath id="clip0_301_1501">
<rect width="513" height="342" fill="white" transform="translate(4 0.860352)"/>
</clipPath>
</defs>
</svg>
